<?xml version="1.0" standalone="no"?>
<!DOCTYPE svg PUBLIC "-//W3C//DTD SVG 20010904//EN"
 "http://www.w3.org/TR/2001/REC-SVG-20010904/DTD/svg10.dtd">
<svg version="1.0" xmlns="http://www.w3.org/2000/svg"
 width="276.000000pt" height="276.000000pt" viewBox="0 0 276.000000 276.000000"
 preserveAspectRatio="xMidYMid meet">
<metadata>
Created by potrace 1.11, written by Peter Selinger 2001-2013
</metadata>
<g transform="translate(0.000000,276.000000) scale(0.100000,-0.100000)"
fill="#000000" stroke="none">
<path d="M1300 2659 c-72 -34 -138 -84 -170 -128 -20 -29 -20 -29 0 -24 11 3
18 9 15 13 -3 5 0 12 6 16 8 5 9 3 4 -6 -6 -10 -4 -11 11 -6 45 19 56 16 16
-4 -50 -26 -82 -63 -82 -96 0 -12 -9 -43 -20 -68 -10 -25 -17 -46 -15 -46 3 0
0 -12 -6 -27 -15 -39 -28 -123 -17 -117 4 3 8 15 8 26 0 12 3 18 7 15 8 -9 4
-147 -6 -184 -7 -25 -9 -23 -16 27 l-8 55 -13 -50 c-7 -27 -15 -97 -17 -155
-3 -65 -11 -120 -21 -144 -9 -21 -16 -49 -16 -61 0 -13 -9 -45 -21 -71 -11
-27 -18 -57 -15 -68 3 -10 -2 -35 -10 -55 -16 -38 -11 -83 12 -102 8 -6 14
-21 14 -33 0 -12 -3 -16 -8 -10 -12 20 -59 13 -71 -10 -7 -13 -10 -14 -7 -3 3
9 1 17 -4 17 -6 0 -10 20 -10 45 0 43 -1 44 -20 33 -23 -14 -50 -66 -50 -95 0
-15 2 -16 10 -3 8 13 10 13 10 -2 0 -9 -5 -20 -10 -23 -6 -4 -7 -11 -4 -17 4
-7 2 -8 -5 -4 -10 7 -129 -71 -130 -85 -1 -7 73 -39 90 -39 6 0 8 4 4 9 -8 14
22 27 73 34 25 3 55 15 70 29 24 20 24 19 -2 -9 -16 -18 -26 -36 -22 -40 4 -4
11 -1 16 6 7 12 13 12 38 2 29 -12 48 -38 37 -49 -3 -3 -5 0 -5 7 0 9 -4 9
-14 -1 -8 -7 -11 -17 -8 -23 3 -5 -4 -1 -16 9 -17 15 -19 22 -11 33 9 10 8 13
-4 13 -8 0 -18 -6 -20 -12 -4 -10 -7 -10 -15 0 -7 11 -16 9 -45 -8 -39 -23
-41 -42 -5 -35 15 3 18 1 11 -6 -7 -7 -24 -7 -54 0 -61 15 -74 14 -61 -2 8
-10 5 -20 -13 -42 -30 -34 -30 -36 -4 -69 24 -30 41 -33 64 -10 23 24 30 9 27
-54 -2 -32 -4 -71 -5 -89 -1 -26 -6 -33 -28 -38 -18 -4 -28 -14 -32 -31 -4
-21 -1 -24 27 -25 l31 -1 -32 -9 c-27 -8 -33 -15 -33 -38 0 -50 -12 -121 -21
-121 -5 0 -9 28 -9 62 0 73 -6 73 -13 0 -3 -30 -7 -55 -9 -57 -2 -2 -20 -10
-42 -19 l-39 -16 6 45 c4 25 9 56 13 70 5 19 2 25 -10 25 -9 0 -16 5 -16 10 0
6 6 10 14 10 7 0 16 12 19 26 5 26 4 26 -52 21 -31 -2 -66 -8 -79 -12 -18 -6
-22 -4 -22 14 0 12 -4 20 -9 16 -13 -8 -2 -139 14 -164 3 -7 0 -8 -9 -5 -28
11 -19 -38 12 -64 21 -18 22 -21 5 -13 -12 6 -24 11 -28 11 -3 0 -4 -40 -2
-89 4 -103 32 -173 80 -194 31 -14 35 -27 8 -27 -33 0 -33 -29 0 -78 l32 -47
-47 45 c-25 24 -46 50 -46 58 0 7 -4 10 -10 7 -5 -3 -10 -35 -10 -70 0 -47 4
-64 15 -69 8 -3 15 -10 15 -15 0 -17 -59 9 -79 35 -11 14 -22 20 -25 15 -4 -6
7 -20 23 -32 l30 -22 -25 -36 -24 -36 32 -3 c18 -2 34 1 36 6 7 22 51 61 57
52 3 -6 0 -13 -8 -16 -8 -3 -17 -14 -20 -25 -5 -18 1 -19 114 -19 l119 0 -10
25 c-5 14 -7 32 -4 40 4 8 -1 27 -11 41 -18 28 -15 43 5 20 10 -14 14 -14 27
-1 12 13 10 20 -21 61 -21 27 -36 58 -36 74 0 15 -9 35 -20 45 -11 10 -20 23
-20 28 0 6 9 2 20 -8 20 -18 20 -17 20 8 0 22 -5 27 -25 27 -26 0 -33 18 -13
38 8 8 8 15 -2 29 -8 10 -9 13 -2 8 15 -14 150 113 162 152 7 23 9 16 10 -37
2 -36 3 -82 2 -103 0 -39 -18 -71 -33 -61 -15 9 -22 -25 -12 -49 10 -21 11
-21 25 13 19 44 32 54 85 67 29 7 45 7 52 0 8 -8 11 -8 11 1 0 7 7 12 15 12
17 0 19 47 8 199 l-6 91 -41 -23 c-52 -30 -76 -39 -76 -27 0 4 14 11 30 15 17
4 30 10 30 15 0 4 14 13 30 20 21 9 30 19 30 35 l0 24 -60 -31 c-33 -17 -62
-29 -65 -27 -4 4 -9 111 -6 134 1 6 6 3 11 -5 8 -12 10 -10 10 9 0 15 4 21 14
18 7 -3 18 -1 23 4 5 5 24 10 43 12 35 4 35 5 42 64 3 33 7 66 8 74 1 8 2 23
1 34 -2 19 -2 19 -12 2 -6 -11 -9 -29 -6 -43 2 -13 0 -21 -4 -18 -5 3 -9 14
-9 25 0 10 -6 28 -12 40 -11 17 -10 22 12 39 32 25 43 25 35 0 -11 -34 5 -22
21 15 8 20 18 33 23 31 12 -8 1 -95 -16 -129 -11 -21 -11 -27 -1 -27 8 0 6 -5
-4 -11 -24 -13 -23 -32 1 -24 17 5 18 0 17 -70 -1 -49 -5 -76 -13 -79 -9 -4
-10 -13 -5 -28 5 -13 8 -71 8 -131 -1 -59 2 -107 7 -107 11 0 8 -35 -5 -48 -9
-9 -9 -18 0 -38 8 -16 15 -110 19 -245 l6 -219 419 0 418 0 -6 80 c-6 71 -5
80 9 74 13 -5 15 -17 10 -75 -4 -43 -2 -69 4 -69 5 0 10 14 11 31 1 49 12 47
13 -2 1 -41 2 -42 9 -14 4 17 8 51 9 78 1 45 2 47 26 41 25 -6 25 -6 26 67 1
41 3 98 4 126 3 45 1 51 -10 39 -8 -8 -14 -34 -13 -66 0 -29 -5 -57 -11 -63
-8 -8 -10 17 -7 89 3 54 5 107 5 117 1 10 7 17 14 14 6 -2 11 -14 9 -25 -4
-29 16 -28 22 1 3 12 7 31 9 42 4 18 5 18 6 -2 1 -31 17 -29 25 4 5 17 3 29
-6 34 -9 6 -8 9 7 10 17 0 17 2 -5 12 -14 6 -27 12 -28 13 -2 1 1 11 7 21 10
17 10 17 11 1 0 -10 5 -18 10 -18 6 0 10 4 10 8 0 14 59 10 64 -4 3 -8 0 -11
-10 -7 -11 4 -14 -4 -15 -33 -1 -22 -3 -48 -4 -59 -1 -11 -5 -81 -9 -155 -3
-74 -9 -174 -13 -222 l-6 -88 201 0 200 0 7 85 c4 47 11 85 16 85 5 0 9 -5 9
-10 0 -6 17 -29 39 -53 21 -23 46 -57 55 -74 l17 -33 99 0 100 0 -1 343 0 343
-42 52 c-28 34 -44 47 -49 39 -6 -9 -8 -9 -8 1 0 8 -6 28 -14 45 -32 75 -56
156 -49 173 4 11 3 15 -4 11 -6 -4 -14 0 -17 9 -4 10 -2 13 6 8 13 -9 -31 73
-48 87 -9 7 -18 4 -32 -11 -12 -13 -22 -17 -26 -11 -4 5 3 15 14 21 26 14 25
24 -5 40 -18 10 -28 10 -38 2 -10 -9 -24 -1 -60 36 -25 26 -45 50 -44 53 4 10
-56 55 -93 69 -52 20 -80 40 -80 57 0 14 -32 100 -51 135 -5 11 -5 19 1 23 6
4 8 11 4 16 -3 5 -10 6 -16 3 -6 -4 -8 -2 -5 3 4 6 -9 23 -28 37 -38 29 -65
75 -85 143 -8 24 -17 40 -23 36 -6 -4 -8 0 -4 11 4 9 0 31 -8 47 -9 16 -13 35
-9 41 4 7 3 8 -4 4 -8 -5 -12 1 -12 18 0 14 -5 28 -11 32 -8 5 -10 -10 -7 -54
4 -64 -4 -75 -17 -20 -5 23 -9 27 -12 15 -8 -30 -23 -7 -23 35 0 41 -35 154
-53 173 -7 7 -8 3 -3 -10 11 -31 20 -111 11 -103 -5 5 -10 22 -12 40 -2 17
-17 60 -33 95 -28 59 -42 153 -22 153 4 0 8 20 9 45 1 25 -2 43 -5 41 -4 -2
-8 17 -8 42 l-2 45 20 -24 c11 -13 5 3 -12 36 -21 37 -26 54 -16 46 24 -20 61
-96 75 -156 17 -67 51 -140 72 -153 15 -10 16 -8 9 16 -29 98 -125 310 -161
356 -23 29 -73 59 -83 49 -3 -4 -6 -1 -6 5 0 7 -10 12 -22 12 -11 0 -46 19
-77 42 -49 37 -63 43 -116 45 -50 2 -71 -2 -125 -28z m185 -49 c3 -5 1 -10 -4
-10 -6 0 -11 5 -11 10 0 6 2 10 4 10 3 0 8 -4 11 -10z m-228 -46 c-3 -3 -12
-4 -19 -1 -8 3 -5 6 6 6 11 1 17 -2 13 -5z m205 -59 c10 -4 20 -17 24 -28 3
-12 17 -36 30 -54 20 -26 24 -44 24 -97 l0 -65 -35 -6 c-19 -3 -51 -7 -70 -10
-58 -9 -56 -29 2 -21 52 7 103 -5 103 -24 0 -5 -18 -10 -39 -10 -28 0 -41 -5
-46 -17 -3 -10 -2 -19 4 -21 5 -2 7 -10 4 -18 -3 -8 3 -17 13 -21 11 -4 24
-14 30 -22 8 -10 26 -15 54 -14 39 2 42 0 36 -20 -15 -48 -18 -76 -20 -168 -1
-96 -2 -97 -35 -128 -18 -17 -37 -28 -42 -25 -5 3 -12 -2 -15 -10 -4 -10 -18
-16 -38 -16 -26 0 -36 -6 -46 -27 -7 -16 -13 -31 -12 -35 1 -4 -10 -15 -24
-25 -26 -16 -27 -16 -45 5 -15 19 -21 21 -43 11 -20 -10 -28 -9 -42 5 -10 10
-28 16 -44 14 -33 -3 -63 20 -80 63 -7 16 -17 26 -23 22 -5 -3 -7 -1 -3 5 3 6
-1 39 -9 74 -8 35 -15 81 -15 103 0 38 28 139 54 195 13 28 42 34 40 9 -1 -13
7 -17 32 -17 40 0 49 10 33 39 -9 17 -17 20 -42 16 -18 -3 -39 -8 -48 -12 -10
-3 -24 1 -34 11 -22 22 -14 65 27 159 52 115 102 157 215 179 68 14 93 14 125
1z m-395 -277 c-3 -7 -5 -2 -5 12 0 14 2 19 5 13 2 -7 2 -19 0 -25z m143 -98
c0 -5 -4 -10 -9 -10 -6 0 -13 5 -16 10 -3 6 1 10 9 10 9 0 16 -4 16 -10z
m-140 -344 c0 -17 -17 -39 -23 -29 -3 4 -8 26 -12 48 l-6 40 20 -24 c12 -13
21 -28 21 -35z m760 -211 c0 -8 -4 -15 -10 -15 -5 0 -7 7 -4 15 4 8 8 15 10
15 2 0 4 -7 4 -15z m-426 -33 c30 -8 36 -15 58 -69 17 -43 36 -41 83 7 21 21
42 37 48 33 5 -3 3 -9 -4 -14 -11 -7 -11 -9 2 -9 22 0 29 -32 17 -77 -6 -21
-10 -50 -10 -64 1 -21 -8 -31 -47 -52 -54 -30 -149 -57 -198 -57 -29 0 -33 4
-43 38 -6 20 -15 73 -21 117 -6 44 -17 97 -25 118 -8 20 -14 40 -14 43 0 7
116 -3 154 -14z m686 -12 c0 -5 -2 -10 -4 -10 -3 0 -8 5 -11 10 -3 6 -1 10 4
10 6 0 11 -4 11 -10z m-194 -213 c8 -4 14 -13 14 -19 0 -6 -9 -3 -20 7 -11 10
-20 25 -19 34 0 14 1 14 6 1 3 -8 12 -19 19 -23z m-30 -11 c3 -8 -3 -23 -14
-34 -18 -18 -21 -18 -26 -5 -9 23 3 53 20 53 8 0 17 -6 20 -14z m-889 -98 c-3
-7 -5 -2 -5 12 0 14 2 19 5 13 2 -7 2 -19 0 -25z m973 -28 c0 -5 5 -10 11 -10
14 0 38 -30 39 -48 0 -8 -19 3 -42 22 -41 35 -58 44 -58 29 0 -5 14 -16 31
-25 17 -10 28 -21 25 -26 -2 -4 10 -14 27 -22 31 -13 65 -48 79 -79 4 -10 7
-11 7 -3 2 24 21 12 38 -23 9 -19 20 -35 24 -35 4 0 5 -10 2 -22 -4 -19 -3
-20 7 -8 10 12 11 11 7 -7 -3 -13 -1 -26 4 -29 16 -9 10 -24 -8 -17 -10 4 -14
2 -9 -5 3 -6 12 -44 20 -84 7 -40 16 -81 21 -90 11 -26 -10 -22 -23 5 -8 17
-11 18 -11 5 -1 -24 -13 -22 -32 5 -10 13 -21 64 -28 127 -7 58 -14 112 -15
120 -1 8 -7 -41 -14 -109 -7 -69 -14 -127 -16 -129 -11 -10 -42 10 -43 28 -1
13 3 18 10 14 7 -3 2 3 -11 15 -19 16 -21 26 -16 60 7 44 -1 91 -16 91 -5 0
-8 -15 -6 -34 1 -19 -1 -33 -6 -30 -4 3 -8 21 -8 41 l0 36 43 -6 c38 -5 40 -4
23 8 -15 11 -20 28 -21 72 -1 31 -6 58 -11 60 -6 2 -9 -9 -6 -27 2 -16 0 -30
-6 -30 -14 0 -19 18 -18 67 1 24 -1 43 -4 43 -3 0 -20 9 -39 21 -27 16 -31 23
-20 30 19 12 69 11 69 -1z m350 6 c0 -2 -8 -10 -17 -17 -16 -13 -17 -12 -4 4
13 16 21 21 21 13z m-477 -73 c4 -18 2 -35 -2 -38 -5 -3 -11 15 -13 40 -3 49
6 48 15 -2z m105 -37 l-1 -41 -5 40 -6 40 -5 -37 -6 -37 -36 58 -36 58 48 -20
c48 -20 49 -22 47 -61z m369 12 c12 -17 14 -58 2 -58 -5 0 -9 5 -9 10 0 12
-47 13 -54 1 -3 -4 3 -16 14 -26 12 -10 20 -13 20 -7 0 7 5 12 10 12 6 0 6 -7
-1 -19 -7 -11 -19 -16 -31 -13 -31 8 -22 -40 16 -81 l34 -37 -28 0 c-19 0 -30
-6 -33 -17 -3 -13 -9 -7 -21 21 -23 51 -66 116 -78 116 -5 0 -6 -6 -2 -12 4
-7 3 -10 -1 -5 -5 4 -10 23 -12 42 -3 26 1 37 16 45 27 14 37 13 55 -6 22 -21
38 -8 32 28 -8 50 2 61 33 38 15 -10 32 -25 38 -32z m268 -46 c-7 -7 -45 29
-45 41 0 6 11 0 25 -13 14 -13 23 -26 20 -28z m-235 8 c0 -5 -2 -10 -4 -10 -3
0 -8 5 -11 10 -3 6 -1 10 4 10 6 0 11 -4 11 -10z m-480 -128 c5 -68 4 -73 -15
-70 -18 3 -20 12 -23 76 -3 66 -1 73 15 70 15 -3 19 -16 23 -76z m650 18 c0
-5 -5 -10 -11 -10 -5 0 -7 5 -4 10 3 6 8 10 11 10 2 0 4 -4 4 -10z m70 -58 c0
-3 -9 5 -20 18 l-20 23 0 -26 c0 -17 -5 -27 -15 -27 -8 0 -15 -5 -15 -11 0 -5
-4 -8 -9 -4 -6 3 -12 -16 -14 -42 -2 -35 -4 -27 -5 27 -1 66 0 73 12 57 14
-17 15 -17 22 5 4 13 14 28 23 35 13 9 18 6 28 -19 7 -17 13 -33 13 -36z m50
-106 c10 -32 10 -40 -1 -47 -23 -14 -24 -11 -25 46 0 60 7 61 26 1z m-380 34
c0 -5 -2 -10 -4 -10 -3 0 -8 5 -11 10 -3 6 -1 10 4 10 6 0 11 -4 11 -10z m65
0 c13 -5 14 -9 5 -9 -8 0 -24 4 -35 9 -13 5 -14 9 -5 9 8 0 24 -4 35 -9z
m-462 -17 c-7 -2 -19 -2 -25 0 -7 3 -2 5 12 5 14 0 19 -2 13 -5z m-1347 -88
c-11 -8 -22 -12 -25 -9 -6 6 19 24 34 24 6 -1 1 -7 -9 -15z m1494 -52 c0 -27
-4 -43 -8 -36 -8 12 -4 83 4 83 2 0 4 -21 4 -47z m607 5 c-3 -7 -5 -2 -5 12 0
14 2 19 5 13 2 -7 2 -19 0 -25z m-557 -40 c0 -25 -3 -28 -14 -19 -7 6 -11 22
-8 36 6 33 22 21 22 -17z m80 6 c0 -2 -7 -4 -15 -4 -8 0 -15 4 -15 10 0 5 7 7
15 4 8 -4 15 -8 15 -10z m104 -107 c15 -21 26 -41 23 -44 -7 -6 -65 57 -72 80
-4 9 -13 17 -21 17 -15 0 -19 12 -7 23 7 8 36 -21 77 -76z m-66 9 c-3 -24 48
-110 60 -102 4 2 8 -3 8 -12 1 -9 4 -54 7 -99 5 -75 -2 -109 -18 -83 -3 5 -1
10 6 10 8 0 8 4 -1 15 -7 8 -10 22 -6 30 7 19 2 19 -17 1 -13 -13 -18 -12 -38
12 -13 15 -17 21 -9 15 18 -17 36 -17 22 0 -7 8 -6 30 3 70 13 57 13 58 -8 57
-52 -5 -58 -1 -46 21 8 16 8 28 0 45 -8 19 -7 22 4 17 10 -3 15 2 15 17 0 12
4 18 11 15 5 -4 9 -17 7 -29z m-181 -8 c-3 -8 -6 -5 -6 6 -1 11 2 17 5 13 3
-3 4 -12 1 -19z m-128 -170 c1 -55 -3 -100 -9 -103 -6 -4 -10 37 -9 117 0 78
4 116 9 103 5 -11 9 -64 9 -117z m54 97 c-3 -9 -8 -14 -10 -11 -3 3 -2 9 2 15
9 16 15 13 8 -4z m327 11 c0 -3 -4 -8 -10 -11 -5 -3 -10 -1 -10 4 0 6 5 11 10
11 6 0 10 -2 10 -4z m-1666 -53 c22 -44 23 -52 12 -105 l-11 -57 -27 57 c-35
74 -40 102 -22 109 8 3 14 14 14 24 0 29 8 23 34 -28z m1333 -20 c-3 -10 -5
-4 -5 12 0 17 2 24 5 18 2 -7 2 -21 0 -30z m822 -23 c1 -13 0 -13 -9 0 -5 8
-9 24 -9 35 l0 20 9 -20 c5 -11 9 -27 9 -35z m-2149 -150 c0 -5 -2 -10 -4 -10
-3 0 -8 5 -11 10 -3 6 -1 10 4 10 6 0 11 -4 11 -10z m1733 -72 c-2 -5 1 -8 7
-8 6 0 8 -4 5 -10 -3 -5 -11 -10 -16 -10 -6 0 -7 5 -4 10 3 6 2 10 -2 10 -5 0
-9 9 -10 20 -1 16 1 17 12 7 7 -6 11 -15 8 -19z m-1612 -1 c-13 -13 -26 -3
-16 12 3 6 11 8 17 5 6 -4 6 -10 -1 -17z m-108 -61 c10 -8 14 -17 9 -20 -5 -3
-17 3 -27 14 -21 23 -9 26 18 6z m-169 -44 c3 -5 -1 -9 -9 -9 -8 0 -12 4 -9 9
3 4 7 8 9 8 2 0 6 -4 9 -8z"/>
<path d="M1140 2230 c0 -5 7 -10 16 -10 8 0 12 5 9 10 -3 6 -10 10 -16 10 -5
0 -9 -4 -9 -10z"/>
<path d="M1356 2176 l-37 -35 2 -83 c2 -51 -2 -92 -10 -105 -6 -13 -8 -23 -2
-23 18 0 41 -31 41 -56 0 -17 5 -24 20 -24 11 0 20 5 20 10 0 6 -4 10 -9 10
-18 0 -5 39 22 64 28 26 35 64 16 83 -6 6 -15 29 -19 50 -5 21 -11 49 -15 63
-5 21 -5 22 5 8 16 -26 31 -22 24 7 -4 18 -1 27 10 31 15 6 15 8 -1 20 -25 18
-24 18 -67 -20z"/>
<path d="M1424 1839 c-4 -7 -21 -9 -45 -5 -36 6 -167 -9 -178 -20 -12 -12 12
-15 53 -6 34 7 52 6 72 -4 32 -17 96 -18 112 -2 14 14 16 48 3 48 -6 0 -13 -5
-17 -11z"/>
<path d="M2101 784 c0 -11 3 -14 6 -6 3 7 2 16 -1 19 -3 4 -6 -2 -5 -13z"/>
<path d="M1891 1104 c0 -11 3 -14 6 -6 3 7 2 16 -1 19 -3 4 -6 -2 -5 -13z"/>
<path d="M2240 1105 c7 -8 17 -15 22 -15 6 0 5 7 -2 15 -7 8 -17 15 -22 15 -6
0 -5 -7 2 -15z"/>
<path d="M2280 1070 c0 -5 5 -10 11 -10 5 0 7 5 4 10 -3 6 -8 10 -11 10 -2 0
-4 -4 -4 -10z"/>
<path d="M2145 1030 c3 -5 8 -10 11 -10 2 0 4 5 4 10 0 6 -5 10 -11 10 -5 0
-7 -4 -4 -10z"/>
<path d="M1782 2228 c3 -46 7 -90 9 -98 3 -8 1 -5 -5 8 -17 38 -27 24 -11 -15
18 -43 25 -52 25 -32 1 20 40 -32 40 -53 0 -10 5 -18 11 -18 6 0 19 -10 29
-22 32 -39 32 -13 0 30 -16 23 -30 52 -30 64 1 21 3 20 29 -12 l29 -34 -3 32
c-1 20 -11 39 -26 51 -30 23 -79 120 -79 155 0 14 -5 26 -11 26 -8 0 -10 -26
-7 -82z"/>
<path d="M1850 2004 c0 -5 7 -18 15 -28 8 -11 15 -16 15 -10 0 5 -7 18 -15 28
-8 11 -15 16 -15 10z"/>
<path d="M860 1440 c0 -5 5 -10 10 -10 6 0 10 5 10 10 0 6 -4 10 -10 10 -5 0
-10 -4 -10 -10z"/>
<path d="M574 1165 c-10 -8 -14 -14 -9 -15 15 0 40 18 34 24 -3 3 -14 -1 -25
-9z"/>
<path d="M505 1119 c-4 -6 -5 -12 -2 -15 2 -3 7 2 10 11 7 17 1 20 -8 4z"/>
<path d="M646 995 c4 -8 10 -15 16 -15 5 0 6 -5 3 -11 -4 -6 -14 -8 -22 -4
-13 4 -14 3 -4 -9 11 -13 15 -12 29 2 15 15 16 19 2 35 -18 21 -31 22 -24 2z"/>
<path d="M741 964 c0 -11 3 -14 6 -6 3 7 2 16 -1 19 -3 4 -6 -2 -5 -13z"/>
<path d="M2626 917 c11 -46 43 -123 44 -106 0 8 -7 38 -16 65 -19 55 -40 86
-28 41z"/>
<path d="M494 851 c2 -24 9 -48 15 -54 18 -18 13 56 -5 79 -14 18 -15 16 -10
-25z"/>
<path d="M912 850 c0 -19 2 -27 5 -17 2 9 2 25 0 35 -3 9 -5 1 -5 -18z"/>
<path d="M540 848 c0 -19 2 -20 10 -8 13 19 13 30 0 30 -5 0 -10 -10 -10 -22z"/>
<path d="M400 840 c0 -5 5 -10 10 -10 6 0 10 5 10 10 0 6 -4 10 -10 10 -5 0
-10 -4 -10 -10z"/>
<path d="M882 820 c0 -14 2 -19 5 -12 2 6 2 18 0 25 -3 6 -5 1 -5 -13z"/>
<path d="M800 814 c0 -8 5 -12 10 -9 6 4 8 11 5 16 -9 14 -15 11 -15 -7z"/>
<path d="M850 800 c0 -5 5 -10 11 -10 5 0 7 5 4 10 -3 6 -8 10 -11 10 -2 0 -4
-4 -4 -10z"/>
<path d="M370 572 c0 -67 3 -79 21 -90 19 -12 20 -11 18 45 -2 80 -9 111 -25
117 -11 4 -14 -10 -14 -72z m17 16 c-3 -8 -6 -5 -6 6 -1 11 2 17 5 13 3 -3 4
-12 1 -19z"/>
<path d="M631 634 c0 -11 3 -14 6 -6 3 7 2 16 -1 19 -3 4 -6 -2 -5 -13z"/>
<path d="M692 487 c-27 -29 -29 -57 -3 -57 26 0 48 27 33 42 -6 6 -8 17 -5 24
8 20 -1 17 -25 -9z"/>
<path d="M371 448 c0 -21 1 -38 3 -38 2 0 12 -3 20 -6 13 -5 16 0 14 24 -1 18
-7 28 -14 25 -7 -2 -14 4 -17 14 -3 10 -5 1 -6 -19z"/>
<path d="M887 341 c-3 -13 -1 -18 9 -14 7 2 10 11 7 19 -7 19 -10 18 -16 -5z"/>
<path d="M932 330 c0 -14 2 -19 5 -12 2 6 2 18 0 25 -3 6 -5 1 -5 -13z"/>
<path d="M851 304 c0 -11 3 -14 6 -6 3 7 2 16 -1 19 -3 4 -6 -2 -5 -13z"/>
<path d="M816 295 c4 -8 8 -15 10 -15 2 0 4 7 4 15 0 8 -4 15 -10 15 -5 0 -7
-7 -4 -15z"/>
<path d="M731 285 c-2 -26 41 -215 48 -215 7 0 8 93 1 100 -7 7 -30 68 -40
105 -5 20 -8 24 -9 10z"/>
<path d="M801 264 c0 -11 3 -14 6 -6 3 7 2 16 -1 19 -3 4 -6 -2 -5 -13z"/>
<path d="M900 260 c0 -5 5 -10 10 -10 6 0 10 5 10 10 0 6 -4 10 -10 10 -5 0
-10 -4 -10 -10z"/>
<path d="M937 235 c3 -21 0 -35 -6 -35 -6 0 -11 6 -11 13 0 7 -3 8 -8 2 -10
-14 -66 -50 -58 -37 3 5 -1 16 -10 23 -13 10 -17 10 -24 -1 -6 -10 -10 -5 -13
16 -2 16 -4 -7 -5 -51 0 -44 4 -84 8 -90 5 -5 10 -23 12 -40 2 -23 9 -31 27
-33 21 -3 23 -1 17 23 -5 18 -3 25 4 20 14 -9 9 27 -5 37 -12 9 -6 15 26 23
22 5 27 3 32 -17 4 -13 2 -24 -3 -26 -6 -2 -10 -12 -10 -23 0 -10 -7 -19 -15
-19 -8 0 -15 -4 -15 -10 0 -5 24 -10 54 -10 l53 0 -10 50 c-5 27 -14 50 -19
50 -5 0 -7 -9 -3 -19 3 -11 1 -22 -5 -26 -5 -3 -11 3 -11 14 -1 12 -2 27 -3
34 -1 6 7 11 18 9 17 -3 18 1 12 35 -4 21 -10 57 -13 81 -3 23 -9 42 -13 42
-4 0 -6 -16 -3 -35z"/>
<path d="M237 190 c-11 -25 -17 -57 -16 -89 2 -47 4 -51 23 -45 21 7 21 6 3
-14 -19 -21 -16 -42 6 -42 7 0 6 4 -3 10 -13 9 -11 13 10 30 14 11 21 20 16
20 -5 0 -1 10 10 23 27 30 25 75 -6 114 l-25 31 -18 -38z"/>
<path d="M393 155 c0 -22 2 -30 4 -17 2 12 2 30 0 40 -3 9 -5 -1 -4 -23z"/>
<path d="M1926 108 c-9 -36 -7 -108 4 -108 5 0 9 28 9 65 -1 36 -2 65 -4 65
-1 0 -5 -10 -9 -22z"/>
<path d="M200 30 c0 -5 5 -10 11 -10 5 0 7 5 4 10 -3 6 -8 10 -11 10 -2 0 -4
-4 -4 -10z"/>
</g>
</svg>
